<svg width="41" height="42" viewBox="0 0 41 42" fill="none" xmlns="http://www.w3.org/2000/svg">
<g clip-path="url(#clip0_34_2)">
<path d="M36 32.7999H4.2C2.7 32.7999 1.5 31.6 1.5 30.1V15.9C1.5 14.4 2.7 13.2 4.2 13.2H36C37.5 13.2 38.7 14.4 38.7 15.9V30.1C38.7 31.6 37.5 32.7999 36 32.7999Z" stroke="white" stroke-width="3" stroke-miterlimit="10" stroke-linecap="round" stroke-linejoin="round"/>
<path d="M34.4 13.2V12C34.4 10.8 33.9 9.6 33 8.7L27.2 2.9C26.3 2 25.2 1.5 23.9 1.5H8.49999C6.99999 1.5 5.79999 2.7 5.79999 4.2V13.2" stroke="white" stroke-width="3" stroke-miterlimit="10" stroke-linecap="round" stroke-linejoin="round"/>
<path d="M5.79999 32.8V37.9001C5.79999 39.4001 6.99999 40.6 8.49999 40.6H31.7C33.2 40.6 34.4 39.4001 34.4 37.9001V32.8" stroke="white" stroke-width="3" stroke-miterlimit="10" stroke-linecap="round" stroke-linejoin="round"/>
<path d="M7.29999 28.3V18.3H9.69999C11.2 18.3 12.4 19.5 12.4 21C12.4 22.5 11.2 23.7001 9.69999 23.7001H7.29999" stroke="white" stroke-width="3" stroke-miterlimit="10" stroke-linecap="round" stroke-linejoin="round"/>
<path d="M18.8 28.3H17.7V18.3H18.8C21.6 18.3 23.8 20.5 23.8 23.3C23.8 26 21.5 28.3 18.8 28.3Z" stroke="white" stroke-width="3" stroke-miterlimit="10" stroke-linecap="round" stroke-linejoin="round"/>
<path d="M29.1 28.3V18.3H33.1" stroke="white" stroke-width="3" stroke-miterlimit="10" stroke-linecap="round" stroke-linejoin="round"/>
<path d="M29.1 23.6001H33.1" stroke="white" stroke-width="3" stroke-miterlimit="10" stroke-linecap="round" stroke-linejoin="round"/>
</g>
<defs>
<clipPath id="clip0_34_2">
<rect width="40.2" height="42" fill="white"/>
</clipPath>
</defs>
</svg>
