<svg width="33" height="33" viewBox="0 0 33 33" fill="none" xmlns="http://www.w3.org/2000/svg">
<g clip-path="url(#clip0_35_106)">
<path d="M1.5 10.6H8.3L11 7.90002H25.8" stroke="white" stroke-width="3" stroke-miterlimit="10" stroke-linecap="round" stroke-linejoin="round"/>
<path d="M4.39999 6.09998H7.29999" stroke="white" stroke-width="3" stroke-miterlimit="10" stroke-linecap="round" stroke-linejoin="round"/>
<path d="M22.6 25.2999C24.1464 25.2999 25.4 24.0463 25.4 22.5C25.4 20.9536 24.1464 19.7 22.6 19.7C21.0536 19.7 19.8 20.9536 19.8 22.5C19.8 24.0463 21.0536 25.2999 22.6 25.2999Z" stroke="white" stroke-width="3" stroke-miterlimit="10" stroke-linecap="round" stroke-linejoin="round"/>
<path d="M30.7 23.8999V21.0999H29.3C29.1 20.1999 28.8 19.4999 28.3 18.6999L29.3 17.6999L27.3 15.6999L26.3 16.6999C25.6 16.1999 24.8 15.8999 23.9 15.6999V14.2999H21.1V15.6999C20.2 15.8999 19.5 16.1999 18.7 16.6999L17.7 15.6999L15.7 17.6999L16.7 18.6999C16.2 19.3999 15.9 20.1999 15.7 21.0999H14.3V23.8999H15.7C15.9 24.7999 16.2 25.4999 16.7 26.2999L15.7 27.2999L17.7 29.2999L18.7 28.2999C19.4 28.7999 20.2 29.0999 21.1 29.2999V30.6999H24V29.2999C24.9 29.0999 25.6 28.7999 26.4 28.2999L27.4 29.2999L29.4 27.2999L28.4 26.2999C28.9 25.5999 29.2 24.7999 29.4 23.8999H30.7Z" stroke="white" stroke-width="3" stroke-miterlimit="10" stroke-linecap="round" stroke-linejoin="round"/>
<path d="M15.9 27.4H3.9C2.6 27.4 1.5 26.3 1.5 25V3.99998C1.5 2.69998 2.6 1.59998 3.9 1.59998H23.3C24.6 1.59998 25.7 2.69998 25.7 3.99998V16.5" stroke="white" stroke-width="3" stroke-miterlimit="10" stroke-linecap="round" stroke-linejoin="round"/>
</g>
<defs>
<clipPath id="clip0_35_106">
<rect width="32.2" height="32.1" fill="white"/>
</clipPath>
</defs>
</svg>
