<svg width="41" height="44" viewBox="0 0 41 44" fill="none" xmlns="http://www.w3.org/2000/svg">
<g clip-path="url(#clip0_35_71)">
<path d="M27.3 33.3H12.8C11.6 33.3 10.7 32.3 10.7 31.2V22.1C10.7 20.9 11.7 20 12.8 20H27.3C28.5 20 29.4 21 29.4 22.1V31.2C29.4 32.4 28.5 33.3 27.3 33.3Z" stroke="white" stroke-width="3" stroke-miterlimit="10" stroke-linecap="round" stroke-linejoin="round"/>
<path d="M27.3 16.4H12.8C11.6 16.4 10.7 15.4 10.7 14.3V12.5C10.7 7.29998 14.9 3.09998 20.1 3.09998C25.3 3.09998 29.5 7.29998 29.5 12.5V14.3C29.4 15.4 28.5 16.4 27.3 16.4Z" stroke="white" stroke-width="3" stroke-miterlimit="10" stroke-linecap="round" stroke-linejoin="round"/>
<path d="M3.9 29.8C2.6 29.8 1.5 28.7 1.5 27.4V22.3C1.5 21 2.6 20 3.9 20C5.2 20 6.3 21.1 6.3 22.4V27.5C6.3 28.7 5.2 29.8 3.9 29.8Z" stroke="white" stroke-width="3" stroke-miterlimit="10" stroke-linecap="round" stroke-linejoin="round"/>
<path d="M36.2 29.8C34.9 29.8 33.8 28.7 33.8 27.4V22.3C33.8 21 34.9 19.9 36.2 19.9C37.5 19.9 38.6 21 38.6 22.3V27.4C38.6 28.7 37.5 29.8 36.2 29.8Z" stroke="white" stroke-width="3" stroke-miterlimit="10" stroke-linecap="round" stroke-linejoin="round"/>
<path d="M15.3 41.8C14 41.8 12.9 40.7001 12.9 39.4001V33.3H17.7V39.4001C17.7 40.8001 16.6 41.8 15.3 41.8Z" stroke="white" stroke-width="3" stroke-miterlimit="10" stroke-linecap="round" stroke-linejoin="round"/>
<path d="M24.8 41.8C23.5 41.8 22.4 40.7001 22.4 39.4001V33.3H27.2V39.4001C27.2 40.8001 26.1 41.8 24.8 41.8Z" stroke="white" stroke-width="3" stroke-miterlimit="10" stroke-linecap="round" stroke-linejoin="round"/>
<path d="M16.5 9.19995V11.6" stroke="white" stroke-width="3" stroke-miterlimit="10" stroke-linecap="round" stroke-linejoin="round"/>
<path d="M23.6 9.19995V11.6" stroke="white" stroke-width="3" stroke-miterlimit="10" stroke-linecap="round" stroke-linejoin="round"/>
<path d="M15.9 4L14.5 1.5" stroke="white" stroke-width="3" stroke-miterlimit="10" stroke-linecap="round" stroke-linejoin="round"/>
<path d="M24.2 4L25.6 1.5" stroke="white" stroke-width="3" stroke-miterlimit="10" stroke-linecap="round" stroke-linejoin="round"/>
</g>
<defs>
<clipPath id="clip0_35_71">
<rect width="40.1" height="43.3" fill="white"/>
</clipPath>
</defs>
</svg>
