<svg width="37" height="36" viewBox="0 0 37 36" fill="none" xmlns="http://www.w3.org/2000/svg">
<g clip-path="url(#clip0_35_51)">
<path d="M6.89999 20.6C13.1 14.4 23.1 14.4 29.3 20.6" stroke="white" stroke-width="3" stroke-miterlimit="10" stroke-linecap="round" stroke-linejoin="round"/>
<path d="M12.4 26C15.6 22.8 20.7 22.8 23.8 26" stroke="white" stroke-width="3" stroke-miterlimit="10" stroke-linecap="round" stroke-linejoin="round"/>
<path d="M18.1 34.2001C18.7627 34.2001 19.3 33.6628 19.3 33C19.3 32.3373 18.7627 31.8 18.1 31.8C17.4373 31.8 16.9 32.3373 16.9 33C16.9 33.6628 17.4373 34.2001 18.1 34.2001Z" stroke="white" stroke-width="3" stroke-miterlimit="10" stroke-linecap="round" stroke-linejoin="round"/>
<path d="M22.7 1.5L13.5 10.7" stroke="white" stroke-width="3" stroke-miterlimit="10" stroke-linecap="round" stroke-linejoin="round"/>
<path d="M13.5 1.5L22.7 10.7" stroke="white" stroke-width="3" stroke-miterlimit="10" stroke-linecap="round" stroke-linejoin="round"/>
<path d="M28.1 10.5C30.5 11.6 32.7 13.2 34.7 15.1" stroke="white" stroke-width="3" stroke-miterlimit="10" stroke-linecap="round" stroke-linejoin="round"/>
<path d="M1.5 15.2C3.5 13.2 5.7 11.7 8.1 10.6" stroke="white" stroke-width="3" stroke-miterlimit="10" stroke-linecap="round" stroke-linejoin="round"/>
</g>
<defs>
<clipPath id="clip0_35_51">
<rect width="36.2" height="35.7" fill="white"/>
</clipPath>
</defs>
</svg>
