<svg width="37" height="37" viewBox="0 0 37 37" fill="none" xmlns="http://www.w3.org/2000/svg">
<g clip-path="url(#clip0_35_118)">
<path d="M18.3 35C27.5784 35 35.1 27.4784 35.1 18.2C35.1 8.92164 27.5784 1.40002 18.3 1.40002C9.02162 1.40002 1.5 8.92164 1.5 18.2C1.5 27.4784 9.02162 35 18.3 35Z" stroke="white" stroke-width="3" stroke-miterlimit="10" stroke-linecap="round" stroke-linejoin="round"/>
<path d="M26.9 20.5C26.9 25.3 23 29.2 18.2 29.2C13.4 29.2 9.5 25.3 9.5 20.5" stroke="white" stroke-width="3" stroke-miterlimit="10" stroke-linecap="round" stroke-linejoin="round"/>
<path d="M15.3 11.3C15.3 12.9 14 14.3 12.3 14.3C10.6 14.3 9.30005 13 9.30005 11.3" stroke="white" stroke-width="3" stroke-miterlimit="10" stroke-linecap="round" stroke-linejoin="round"/>
<path d="M27.2001 11.3C27.2001 12.9 25.9001 14.3 24.2001 14.3C22.5001 14.3 21.2001 13 21.2001 11.3" stroke="white" stroke-width="3" stroke-miterlimit="10" stroke-linecap="round" stroke-linejoin="round"/>
</g>
<defs>
<clipPath id="clip0_35_118">
<rect width="36.5" height="36.5" fill="white"/>
</clipPath>
</defs>
</svg>
