<svg width="26" height="37" viewBox="0 0 26 37" fill="none" xmlns="http://www.w3.org/2000/svg">
<g clip-path="url(#clip0_35_67)">
<path d="M12.9 17.8C15.6062 17.8 17.8 15.6062 17.8 12.9C17.8 10.1938 15.6062 8 12.9 8C10.1938 8 8 10.1938 8 12.9C8 15.6062 10.1938 17.8 12.9 17.8Z" stroke="white" stroke-width="3" stroke-miterlimit="10" stroke-linecap="round" stroke-linejoin="round"/>
<path d="M23.1 17.8C23.8 16.3 24.2 14.7 24.2 12.9C24.2 6.6 19.1 1.5 12.8 1.5C6.5 1.5 1.5 6.6 1.5 12.9C1.5 14.6 1.9 16.3 2.6 17.8C2.6 17.8 3.3 19.2 3.8 19.8L12.9 34.7L22 19.7C22.4 19.1 23.1 17.8 23.1 17.8Z" stroke="white" stroke-width="3" stroke-miterlimit="10" stroke-linecap="round" stroke-linejoin="round"/>
</g>
<defs>
<clipPath id="clip0_35_67">
<rect width="25.8" height="36.1" fill="white"/>
</clipPath>
</defs>
</svg>
