<svg width="37" height="34" viewBox="0 0 37 34" fill="none" xmlns="http://www.w3.org/2000/svg">
<g clip-path="url(#clip0_35_87)">
<path d="M25.5 9.00002C27.5987 9.00002 29.3 7.29871 29.3 5.20002C29.3 3.10134 27.5987 1.40002 25.5 1.40002C23.4013 1.40002 21.7 3.10134 21.7 5.20002C21.7 7.29871 23.4013 9.00002 25.5 9.00002Z" stroke="white" stroke-width="3" stroke-miterlimit="10" stroke-linecap="round" stroke-linejoin="round"/>
<path d="M21.8 5.30005H1.5" stroke="white" stroke-width="3" stroke-miterlimit="10" stroke-linecap="round" stroke-linejoin="round"/>
<path d="M29.3 5.30005H34.7" stroke="white" stroke-width="3" stroke-miterlimit="10" stroke-linecap="round" stroke-linejoin="round"/>
<path d="M10.7 20.8001C12.7987 20.8001 14.5 19.0988 14.5 17.0001C14.5 14.9014 12.7987 13.2001 10.7 13.2001C8.60134 13.2001 6.90002 14.9014 6.90002 17.0001C6.90002 19.0988 8.60134 20.8001 10.7 20.8001Z" stroke="white" stroke-width="3" stroke-miterlimit="10" stroke-linecap="round" stroke-linejoin="round"/>
<path d="M14.4 17.0001H34.7" stroke="white" stroke-width="3" stroke-miterlimit="10" stroke-linecap="round" stroke-linejoin="round"/>
<path d="M6.9 17.0001H1.5" stroke="white" stroke-width="3" stroke-miterlimit="10" stroke-linecap="round" stroke-linejoin="round"/>
<path d="M25.5 32.5C27.5987 32.5 29.3 30.7987 29.3 28.7C29.3 26.6013 27.5987 24.9 25.5 24.9C23.4013 24.9 21.7 26.6013 21.7 28.7C21.7 30.7987 23.4013 32.5 25.5 32.5Z" stroke="white" stroke-width="3" stroke-miterlimit="10" stroke-linecap="round" stroke-linejoin="round"/>
<path d="M21.8 28.7001H1.5" stroke="white" stroke-width="3" stroke-miterlimit="10" stroke-linecap="round" stroke-linejoin="round"/>
<path d="M29.3 28.7001H34.7" stroke="white" stroke-width="3" stroke-miterlimit="10" stroke-linecap="round" stroke-linejoin="round"/>
</g>
<defs>
<clipPath id="clip0_35_87">
<rect width="36.2" height="34" fill="white"/>
</clipPath>
</defs>
</svg>
