<?xml version="1.0" encoding="utf-8"?>
<!-- Generator: Adobe Illustrator 25.4.1, SVG Export Plug-In . SVG Version: 6.00 Build 0)  -->
<svg version="1.1" id="Слой_1" xmlns="http://www.w3.org/2000/svg" xmlns:xlink="http://www.w3.org/1999/xlink" x="0px" y="0px"
	 viewBox="0 0 43 63" style="enable-background:new 0 0 43 63;" xml:space="preserve">
<style type="text/css">
	.st0{fill:#327CC6;}
</style>
<g>
	<path class="st0" d="M21.5,63c-0.4,0-0.8-0.1-1.1-0.4l-20-20c-0.6-0.6-0.6-1.5,0-2.1s1.5-0.6,2.1,0l18.9,18.9l18.9-18.9
		c0.6-0.6,1.5-0.6,2.1,0s0.6,1.5,0,2.1l-20,20C22.3,62.9,21.9,63,21.5,63z"/>
</g>
<g>
	<path class="st0" d="M21.5,63c-0.8,0-1.5-0.7-1.5-1.5v-60C20,0.7,20.7,0,21.5,0C22.3,0,23,0.7,23,1.5v60C23,62.3,22.3,63,21.5,63z"
		/>
</g>
</svg>
