<svg width="196" height="59" viewBox="0 0 196 59" fill="none" xmlns="http://www.w3.org/2000/svg">
<path d="M70 43.7V21.2C70 20.7 70.1 20.3 70.3 19.9C70.5 19.5 70.7 19.1 71.1 18.9C71.4 18.6 71.8 18.4 72.2 18.2C72.6 18 73 17.9 73.4 17.9H76.4C76.7 17.9 76.9 18 77 18.2C77.2 18.4 77.3 18.6 77.3 18.9V37.5C77.3 37.7 77.4 38 77.6 38.2C77.8 38.5 78.1 38.6 78.5 38.6H88.8C89.1 38.6 89.3 38.7 89.5 38.8C89.7 39 89.8 39.2 89.8 39.5V43.6C89.8 43.9 89.7 44.1 89.5 44.3C89.3 44.5 89.1 44.6 88.8 44.6H71C70.8 44.6 70.6 44.5 70.4 44.3C70.1 44.1 70 43.9 70 43.7Z" fill="white"/>
<path d="M141.7 18.1C142 18.1 142.2 18.2 142.4 18.4C142.6 18.6 142.7 18.8 142.7 19.1V43.8C142.7 44.1 142.6 44.3 142.4 44.5C142.2 44.7 142 44.8 141.7 44.8H136.9C136.6 44.8 136.4 44.7 136.2 44.5C136 44.3 135.9 44.1 135.9 43.8V30.8C135.9 30.6 135.8 30.6 135.7 30.6C135.6 30.6 135.6 30.6 135.5 30.7L131.7 37.5C131.4 38.1 130.9 38.4 130.4 38.4H128.4C127.9 38.4 127.4 38.1 127.1 37.5L123.4 30.7C123.4 30.6 123.3 30.6 123.2 30.6C123 30.6 123 30.7 123 30.8V43.8C123 44.1 122.9 44.3 122.7 44.5C122.5 44.7 122.3 44.7 122 44.7H117.2C116.9 44.7 116.7 44.6 116.5 44.5C116.3 44.4 116.2 44.1 116.2 43.8V21.2C116.2 20.7 116.3 20.2 116.6 19.8C116.8 19.4 117.1 19.1 117.5 18.8C117.8 18.5 118.2 18.3 118.5 18.2C118.9 18.1 119.1 18 119.4 18H121.5C122.2 18 122.6 18.3 122.9 18.8L129.3 30.2C129.4 30.3 129.4 30.3 129.5 30.3C129.6 30.3 129.6 30.3 129.7 30.2L136.1 18.8C136.4 18.2 136.8 18 137.5 18L141.7 18.1Z" fill="white"/>
<path d="M146.5 34.5V21.3C146.5 20.8 146.6 20.3 146.8 19.9C147 19.5 147.3 19.1 147.6 18.9C147.9 18.6 148.3 18.4 148.7 18.3C149.1 18.1 149.5 18.1 149.9 18.1H152.7C153 18.1 153.2 18.2 153.4 18.4C153.6 18.6 153.7 18.8 153.7 19.1V34.6C153.7 36.1 154.1 37.2 154.8 38.1C155.5 39 156.6 39.4 158.1 39.4C159.6 39.4 160.7 39 161.4 38.1C162.1 37.2 162.4 36.1 162.4 34.7V21.3C162.4 20.8 162.5 20.3 162.7 19.9C162.9 19.5 163.2 19.1 163.5 18.9C163.8 18.6 164.2 18.4 164.6 18.3C165 18.2 165.4 18.1 165.7 18.1H168.5C168.8 18.1 169 18.2 169.2 18.4C169.4 18.6 169.5 18.8 169.5 19.1V34.6C169.5 36.4 169.2 38 168.7 39.3C168.2 40.6 167.4 41.7 166.4 42.6C165.4 43.5 164.2 44.1 162.8 44.5C161.4 44.9 159.8 45.1 158.1 45.1C156.4 45.1 154.8 44.9 153.4 44.5C152 44.1 150.8 43.5 149.7 42.6C148.7 41.7 147.9 40.6 147.3 39.3C146.8 37.9 146.5 36.4 146.5 34.5Z" fill="white"/>
<path d="M109.2 34C109.9 34 110.2 33.7 110.2 33V29.6C110.2 28.9 109.9 28.6 109.2 28.6H100.9C100.5 28.6 100.2 28.5 100 28.2C99.8 27.9 99.7 27.7 99.7 27.4V24.9C99.7 24.6 99.8 24.4 100 24.1C100.2 23.8 100.5 23.7 100.9 23.7H111.8C112.1 23.7 112.3 23.6 112.5 23.4C112.7 23.2 112.8 23 112.8 22.8V19C112.8 18.7 112.7 18.5 112.5 18.3C112.3 18.1 112.1 18 111.8 18H96.1C95.2 18 94.4 18.3 93.8 18.9C93.1 19.5 92.8 20.3 92.8 21.3V43.7C92.8 44 92.9 44.2 93.1 44.4C93.3 44.6 93.5 44.7 93.8 44.7H112C112.3 44.7 112.5 44.6 112.7 44.4C112.9 44.2 113 44 113 43.7V39.9C113 39.6 112.9 39.4 112.7 39.2C112.5 39 112.3 38.9 112 38.9H100.8C100.4 38.9 100.2 38.8 99.9 38.5C99.7 38.2 99.6 38 99.6 37.7V35.1C99.6 34.8 99.7 34.6 99.9 34.3C100.1 34 100.4 33.9 100.8 33.9L109.2 34Z" fill="white"/>
<path d="M195.9 43.4L191.1 34.7C191 34.6 191 34.5 191 34.3C191 34.1 191.1 34 191.3 33.8C192.7 33 193.7 32.1 194.4 30.9C195 29.7 195.4 28.3 195.4 26.7C195.4 25.1 195.1 23.8 194.5 22.7C193.9 21.6 193.1 20.7 192.2 20C191.2 19.3 190.1 18.8 188.8 18.5C187.5 18.2 186.2 18 184.7 18H176.6C175.7 18 174.9 18.3 174.3 19C173.6 19.6 173.3 20.4 173.3 21.4V43.8C173.3 44.1 173.4 44.3 173.6 44.5C173.8 44.7 174 44.8 174.3 44.8H179.5C179.8 44.8 180 44.7 180.2 44.6C180.4 44.4 180.5 44.2 180.5 43.9V37.6V36.8C180.5 36.5 180.6 36.3 180.8 36C181 35.7 181.3 35.6 181.7 35.6H183.5C183.9 35.6 184.2 35.8 184.5 36.2L188.4 43.9C188.7 44.6 189.2 44.9 190 44.9H195.4C195.6 44.9 195.8 44.8 196 44.7C196.2 44.5 196.2 44.3 196.2 44.1C196 43.7 196 43.6 195.9 43.4ZM184.7 23.4C185.7 23.4 186.5 23.7 187.1 24.2C187.7 24.7 188 25.5 188 26.6C188 27.6 187.7 28.4 187.1 28.9C186.5 29.4 185.7 29.7 184.7 29.7H181.4C181.1 29.7 180.8 29.6 180.6 29.4C180.4 29.2 180.3 28.9 180.3 28.6V26.6V26.5V24.7C180.3 24.4 180.4 24.2 180.6 23.9C180.8 23.6 181.1 23.5 181.5 23.5L184.7 23.4Z" fill="white"/>
<path d="M61.1 9.3C59.4 6.4 56.1 5.1 52.8 5.5C44.9 -0.0999994 32.8 6.50121e-07 31.8 6.50121e-07H31.6C30.7 6.50121e-07 18.5 -0.0999994 10.6 5.6C7.30001 5.1 4.00001 6.5 2.40001 9.3C0.800007 12.1 1.20001 15.6 3.10001 18.2C1.10001 26.8 3.10001 35.2 8.90001 42.4C17.8 53.3 25 58.4 31.6 58.4H31.8C38.4 58.4 45.7 53.3 54.5 42.4C60.3 35.2 62.3 26.8 60.3 18.2C62.3 15.6 62.7 12.1 61.1 9.3Z" fill="#FFAB00"/>
<path d="M58.7 10.7C57.5 8.5 54.7 7.7 52.2 8.5C45 2.5 31.9 2.7 31.9 2.7H31.7C31.7 2.7 18.6 2.4 11.4 8.5C8.8 7.7 6.1 8.5 4.9 10.7C3.6 12.9 4.3 15.7 6.3 17.5C4.4 24.2 4.5 32.5 11.2 40.7C19.7 51.1 26.3 55.7 31.8 55.7H32C37.4 55.7 44.1 51.1 52.6 40.7C59.2 32.5 59.4 24.2 57.5 17.5C59.3 15.7 60 12.9 58.7 10.7Z" fill="white"/>
<path d="M31.5 50.2C31.5 50.2 30.7 50.3 29.9 49.9C29.1 49.5 28 48 28 46.2C28 44.3 30.4 44.4 30.4 44.4H33C33 44.4 35.4 44.3 35.4 46.2C35.4 48.1 34.3 49.5 33.5 49.9C32.7 50.3 31.9 50.2 31.9 50.2H31.5Z" fill="#FFAB00"/>
<path d="M29.9 20.9C30 23.7 30 26.7 29.9 29.4C29.8 31.7 29.6 33.9 29.2 35.7C28.9 37.3 28.5 38.7 27.9 39.7C24.3 46.4 16.3 49.2 9.4 46.4C8.8 46.2 8.3 45.9 7.7 45.6C6.3 44.9 5.1 43.9 4.1 42.8C-0.299999 38.3 -1.4 31.2 1.7 25.4C3.6 21.9 10.2 17.3 16.4 13.5C22.3 10.1 29.7 14.1 29.9 20.9Z" fill="#00006E"/>
<path d="M15 23.9C14.9 23.9 14.7 23.9 14.6 23.9C9.5 23.9 5.3 28.1 5.3 33.2C5.3 37 7.6 40.3 11 41.8C12.1 42.3 13.3 42.5 14.6 42.5C19.7 42.5 23.9 38.3 23.9 33.2C23.9 28.2 20 24.1 15 23.9Z" fill="white"/>
<path d="M19.2 31.8C18.8 31.8 18.4 31.7 18.1 31.6C17.1 31.2 16.4 30.2 16.4 29C16.4 28.3 16.6 27.7 17 27.2C16.3 26.9 15.6 26.8 14.8 26.7C14.7 26.7 14.6 26.7 14.5 26.7C10.9 26.7 8 29.6 8 33.2C8 35.9 9.6 38.2 12 39.2C12.8 39.5 13.6 39.7 14.5 39.7C18.1 39.7 21 36.8 21 33.2C21 32.5 20.9 31.9 20.7 31.3C20.4 31.6 19.8 31.8 19.2 31.8Z" fill="#FFAB00"/>
<path d="M33.3 20.9C33.5 14.1 40.9 10.1 46.7 13.6C52.9 17.4 59.5 21.9 61.4 25.5C64.6 31.3 63.4 38.4 59 42.9C58 44 56.8 44.9 55.4 45.7C54.9 46 54.3 46.3 53.7 46.5C46.8 49.2 38.8 46.4 35.2 39.8C34.7 38.8 34.2 37.4 33.9 35.8C33.5 33.9 33.3 31.8 33.2 29.5C33.2 26.6 33.2 23.7 33.3 20.9Z" fill="#00006E"/>
<path d="M48.6 23.9C48.5 23.9 48.3 23.9 48.2 23.9C43.1 23.9 38.9 28.1 38.9 33.2C38.9 37 41.2 40.3 44.6 41.8C45.7 42.3 46.9 42.5 48.2 42.5C53.3 42.5 57.5 38.3 57.5 33.2C57.5 28.2 53.6 24.1 48.6 23.9Z" fill="white"/>
<path d="M52.9 31.8C52.5 31.8 52.1 31.7 51.8 31.6C50.8 31.2 50.1 30.2 50.1 29C50.1 28.3 50.3 27.7 50.7 27.2C50 26.9 49.3 26.8 48.5 26.7C48.4 26.7 48.3 26.7 48.2 26.7C44.6 26.7 41.7 29.6 41.7 33.2C41.7 35.9 43.3 38.2 45.7 39.2C46.5 39.5 47.3 39.7 48.2 39.7C51.8 39.7 54.7 36.8 54.7 33.2C54.7 32.5 54.6 31.9 54.4 31.3C54 31.6 53.5 31.8 52.9 31.8Z" fill="#FFAB00"/>
</svg>
