<svg width="127" height="101" viewBox="0 0 127 101" fill="none" xmlns="http://www.w3.org/2000/svg">
<g clip-path="url(#clip0_11_230)">
<path d="M52.8 56.6C55.6 60.9 56.9 66 56.9 71.9C56.9 80.4 54.2 87.2 48.9 92.4C43.6 97.6 36.8 100.2 28.5 100.2C20.2 100.2 13.4 97.5 8 92.2C2.7 87 0 80.2 0 72C0 68.1 0.5 64.1 1.5 60.2C2.5 56.3 4.6 50.4 8 42.5L25.1 0H54.3L41.3 46.9C46.2 49.1 50 52.3 52.8 56.6ZM122.4 56.6C125.2 60.9 126.5 66 126.5 71.9C126.5 80.4 123.8 87.2 118.5 92.4C113.2 97.6 106.4 100.2 98.1 100.2C89.8 100.2 83 97.5 77.6 92.2C72.3 87 69.6 80.2 69.6 72C69.6 68.1 70.1 64.1 71.1 60.2C72.1 56.3 74.2 50.4 77.6 42.5L94.7 0H123.9L110.9 46.9C115.8 49.1 119.7 52.3 122.4 56.6Z" fill="#FBB03B"/>
</g>
<defs>
<clipPath id="clip0_11_230">
<rect width="126.6" height="100.3" fill="white"/>
</clipPath>
</defs>
</svg>
