<svg width="37" height="37" viewBox="0 0 37 37" fill="none" xmlns="http://www.w3.org/2000/svg">
<g clip-path="url(#clip0_35_125)">
<path d="M12.9 15C14.2807 15 15.4 13.8807 15.4 12.5C15.4 11.1193 14.2807 10 12.9 10C11.5193 10 10.4 11.1193 10.4 12.5C10.4 13.8807 11.5193 15 12.9 15Z" stroke="white" stroke-width="3" stroke-miterlimit="10" stroke-linecap="round" stroke-linejoin="round"/>
<path d="M23.8 26.6001C25.1807 26.6001 26.3 25.4808 26.3 24.1001C26.3 22.7194 25.1807 21.6001 23.8 21.6001C22.4193 21.6001 21.3 22.7194 21.3 24.1001C21.3 25.4808 22.4193 26.6001 23.8 26.6001Z" stroke="white" stroke-width="3" stroke-miterlimit="10" stroke-linecap="round" stroke-linejoin="round"/>
<path d="M30.3 9C31.6807 9 32.8 7.88071 32.8 6.5C32.8 5.11929 31.6807 4 30.3 4C28.9193 4 27.8 5.11929 27.8 6.5C27.8 7.88071 28.9193 9 30.3 9Z" stroke="white" stroke-width="3" stroke-miterlimit="10" stroke-linecap="round" stroke-linejoin="round"/>
<path d="M6.60001 32.8C7.98072 32.8 9.10001 31.6808 9.10001 30.3C9.10001 28.9193 7.98072 27.8 6.60001 27.8C5.21929 27.8 4.10001 28.9193 4.10001 30.3C4.10001 31.6808 5.21929 32.8 6.60001 32.8Z" stroke="white" stroke-width="3" stroke-miterlimit="10" stroke-linecap="round" stroke-linejoin="round"/>
<path d="M4.9 28.4C2.8 25.6 1.5 22.1 1.5 18.3C1.5 9 9 1.5 18.3 1.5C22.1 1.5 25.6 2.8 28.4 4.9" stroke="white" stroke-width="3" stroke-miterlimit="10" stroke-linecap="round" stroke-linejoin="round"/>
<path d="M31.9 8.3999C33.9 11.1999 35.2 14.5999 35.2 18.2999C35.2 27.5999 27.7 35.0999 18.4 35.0999C14.6 35.0999 11.2 33.8999 8.39999 31.7999" stroke="white" stroke-width="3" stroke-miterlimit="10" stroke-linecap="round" stroke-linejoin="round"/>
<path d="M15.4 12.5H34.2" stroke="white" stroke-width="3" stroke-miterlimit="10" stroke-linecap="round" stroke-linejoin="round"/>
<path d="M2.60001 12.5H10.5" stroke="white" stroke-width="3" stroke-miterlimit="10" stroke-linecap="round" stroke-linejoin="round"/>
<path d="M21.3 24.1001H2.60001" stroke="white" stroke-width="3" stroke-miterlimit="10" stroke-linecap="round" stroke-linejoin="round"/>
<path d="M34.2 24.1001H26.3" stroke="white" stroke-width="3" stroke-miterlimit="10" stroke-linecap="round" stroke-linejoin="round"/>
<path d="M23.4 26.4999C22.4 31.5999 20.5 35.0999 18.4 35.0999C15.2 35.0999 12.6 27.5999 12.6 18.2999C12.6 17.0999 12.6 15.9999 12.7 14.8999" stroke="white" stroke-width="3" stroke-miterlimit="10" stroke-linecap="round" stroke-linejoin="round"/>
<path d="M13.3 10.1C14.3 5 16.2 1.5 18.3 1.5C21.5 1.5 24.1 9 24.1 18.3C24.1 19.4 24.1 20.5 24 21.5" stroke="white" stroke-width="3" stroke-miterlimit="10" stroke-linecap="round" stroke-linejoin="round"/>
</g>
<defs>
<clipPath id="clip0_35_125">
<rect width="36.7" height="36.7" fill="white"/>
</clipPath>
</defs>
</svg>
