<svg width="37" height="23" viewBox="0 0 37 23" fill="none" xmlns="http://www.w3.org/2000/svg">
<g clip-path="url(#clip0_35_145)">
<path d="M33.2 20.8H3.2C2.3 20.8 1.5 20 1.5 19.1V3.2C1.5 2.3 2.3 1.5 3.2 1.5H33.2C34.1 1.5 34.9 2.3 34.9 3.2V19.1C34.9 20 34.2 20.8 33.2 20.8Z" stroke="white" stroke-width="3" stroke-miterlimit="10" stroke-linecap="round" stroke-linejoin="round"/>
<path d="M22.4 7.3999H30.8" stroke="white" stroke-width="3" stroke-miterlimit="10" stroke-linecap="round" stroke-linejoin="round"/>
<path d="M22.4 11.5H30.8" stroke="white" stroke-width="3" stroke-miterlimit="10" stroke-linecap="round" stroke-linejoin="round"/>
<path d="M22.4 15.6001H28.8" stroke="white" stroke-width="3" stroke-miterlimit="10" stroke-linecap="round" stroke-linejoin="round"/>
<path d="M11.9 11.7C13.6121 11.7 15 10.3121 15 8.6C15 6.88792 13.6121 5.5 11.9 5.5C10.188 5.5 8.80005 6.88792 8.80005 8.6C8.80005 10.3121 10.188 11.7 11.9 11.7Z" stroke="white" stroke-width="3" stroke-miterlimit="10" stroke-linecap="round" stroke-linejoin="round"/>
<path d="M16.2 16.7C17.1 16.7 17.7 15.8 17.3 15C16.3 13 14.3 11.7 11.9 11.7C9.50004 11.7 7.60004 13 6.60004 15C6.20004 15.8 6.80004 16.7 7.70004 16.7H16.2Z" stroke="white" stroke-width="3" stroke-miterlimit="10" stroke-linecap="round" stroke-linejoin="round"/>
</g>
<defs>
<clipPath id="clip0_35_145">
<rect width="36.4" height="22.3" fill="white"/>
</clipPath>
</defs>
</svg>
