<svg width="35" height="36" viewBox="0 0 35 36" fill="none" xmlns="http://www.w3.org/2000/svg">
<g clip-path="url(#clip0_35_158)">
<path d="M7.4 26.6001V14.6001C4.1 14.6001 1.5 17.3001 1.5 20.5001V20.7001C1.5 23.9001 4.2 26.6001 7.4 26.6001Z" stroke="white" stroke-width="3" stroke-miterlimit="10" stroke-linecap="round" stroke-linejoin="round"/>
<path d="M26.8 14.5V26.5C30.1 26.5 32.7 23.8 32.7 20.6V20.4C32.7 17.2 30.1 14.5 26.8 14.5Z" stroke="white" stroke-width="3" stroke-miterlimit="10" stroke-linecap="round" stroke-linejoin="round"/>
<path d="M28.9 14.9V13.3C28.9 6.8 23.6 1.5 17.1 1.5C10.6 1.5 5.29999 6.8 5.29999 13.3V14.9" stroke="white" stroke-width="3" stroke-miterlimit="10" stroke-linecap="round" stroke-linejoin="round"/>
<path d="M29.8 25.8C29.8 28.4 27.7 30.6 25 30.6H21.4" stroke="white" stroke-width="3" stroke-miterlimit="10" stroke-linecap="round" stroke-linejoin="round"/>
<path d="M18.3 33.5999C20.0121 33.5999 21.4 32.212 21.4 30.4999C21.4 28.7878 20.0121 27.3999 18.3 27.3999C16.5879 27.3999 15.2 28.7878 15.2 30.4999C15.2 32.212 16.5879 33.5999 18.3 33.5999Z" stroke="white" stroke-width="3" stroke-miterlimit="10" stroke-linecap="round" stroke-linejoin="round"/>
</g>
<defs>
<clipPath id="clip0_35_158">
<rect width="34.2" height="35.1" fill="white"/>
</clipPath>
</defs>
</svg>
