<svg width="37" height="28" viewBox="0 0 37 28" fill="none" xmlns="http://www.w3.org/2000/svg">
<g clip-path="url(#clip0_35_166)">
<path d="M32.8 26.2H24.7C23.5 26.2 22.6 25.3 22.6 24.1V7.6C22.6 6.4 23.5 5.5 24.7 5.5H32.8C34 5.5 34.9 6.4 34.9 7.6V24.1C34.9 25.2 34 26.2 32.8 26.2Z" stroke="white" stroke-width="3" stroke-miterlimit="10" stroke-linecap="round" stroke-linejoin="round"/>
<path d="M28.8 10.6C29.2418 10.6 29.6 10.2418 29.6 9.8C29.6 9.35817 29.2418 9 28.8 9C28.3582 9 28 9.35817 28 9.8C28 10.2418 28.3582 10.6 28.8 10.6Z" stroke="white" stroke-width="3" stroke-miterlimit="10" stroke-linecap="round" stroke-linejoin="round"/>
<path d="M27.3 22.1001H30.3" stroke="white" stroke-width="3" stroke-miterlimit="10" stroke-linecap="round" stroke-linejoin="round"/>
<path d="M22.7 22.1001H1.5C1.5 24.4001 3.3 26.2001 5.6 26.2001H24.8" stroke="white" stroke-width="3" stroke-miterlimit="10" stroke-linecap="round" stroke-linejoin="round"/>
<path d="M3.90002 22.1V3.3C3.90002 2.3 4.70002 1.5 5.70002 1.5H28.9C29.9 1.5 30.7 2.3 30.7 3.3V5.5" stroke="white" stroke-width="3" stroke-miterlimit="10" stroke-linecap="round" stroke-linejoin="round"/>
</g>
<defs>
<clipPath id="clip0_35_166">
<rect width="36.4" height="27.7" fill="white"/>
</clipPath>
</defs>
</svg>
